<svg width="14" height="21" viewBox="0 0 14 21" fill="none" xmlns="http://www.w3.org/2000/svg">
<path d="M4.54035 20.1359H1.83952C1.60075 20.1359 1.37176 20.041 1.20293 19.8722C1.03409 19.7034 0.93924 19.4744 0.93924 19.2356V1.23004C0.93924 0.991267 1.03409 0.762278 1.20293 0.593443C1.37176 0.424608 1.60075 0.329758 1.83952 0.329758H4.54035C4.77912 0.329758 5.00811 0.424608 5.17695 0.593443C5.34578 0.762278 5.44063 0.991267 5.44063 1.23004V19.2356C5.44063 19.4744 5.34578 19.7034 5.17695 19.8722C5.00811 20.041 4.77912 20.1359 4.54035 20.1359Z" fill="#E1E1E6"/>
<path d="M12.6429 20.1359H9.94202C9.70325 20.1359 9.47426 20.041 9.30543 19.8722C9.13659 19.7034 9.04174 19.4744 9.04174 19.2356V1.23004C9.04174 0.991267 9.13659 0.762278 9.30543 0.593443C9.47426 0.424608 9.70325 0.329758 9.94202 0.329758H12.6429C12.8816 0.329758 13.1106 0.424608 13.2795 0.593443C13.4483 0.762278 13.5431 0.991267 13.5431 1.23004V19.2356C13.5431 19.4744 13.4483 19.7034 13.2795 19.8722C13.1106 20.041 12.8816 20.1359 12.6429 20.1359Z" fill="#E1E1E6"/>
</svg>
