<svg width="28" height="17" viewBox="0 0 28 17" fill="none" xmlns="http://www.w3.org/2000/svg">
<path d="M27.1426 6.73971L16.5154 0.381491C16.2525 0.221523 15.9514 0.135093 15.6437 0.131233C15.336 0.127373 15.0329 0.206224 14.766 0.359547C14.4765 0.528146 14.2368 0.770363 14.0711 1.0616C13.9055 1.35284 13.8199 1.68272 13.823 2.01775V6.46569L3.65435 0.379803C3.39144 0.219835 3.0904 0.133405 2.78268 0.129545C2.47495 0.125685 2.17183 0.204536 1.905 0.357859C1.61547 0.526458 1.37571 0.768675 1.21008 1.05991C1.04445 1.35115 0.958845 1.68103 0.961955 2.01606V14.4512C0.958745 14.7863 1.0443 15.1163 1.20994 15.4076C1.37558 15.699 1.61538 15.9413 1.905 16.1099C2.17183 16.2632 2.47495 16.3421 2.78268 16.3382C3.0904 16.3344 3.39144 16.2479 3.65435 16.088L13.823 9.99928V14.4489C13.8194 14.7844 13.9048 15.1149 14.0704 15.4066C14.2361 15.6984 14.4761 15.9411 14.766 16.1099C15.0329 16.2632 15.336 16.3421 15.6437 16.3382C15.9514 16.3344 16.2525 16.2479 16.5154 16.088L27.1426 9.72976C27.3953 9.5715 27.6035 9.35164 27.7479 9.09083C27.8923 8.83001 27.968 8.53678 27.968 8.23867C27.968 7.94056 27.8923 7.64733 27.7479 7.38651C27.6035 7.1257 27.3953 6.90584 27.1426 6.74758V6.73971Z" fill="#E1E1E6"/>
</svg>
