<svg width="28" height="17" viewBox="0 0 28 17" fill="none" xmlns="http://www.w3.org/2000/svg">
<path d="M1.33917 6.73971L11.9664 0.381491C12.2293 0.221523 12.5303 0.135093 12.8381 0.131233C13.1458 0.127373 13.4489 0.206224 13.7157 0.359547C14.0053 0.528146 14.245 0.770363 14.4107 1.0616C14.5763 1.35284 14.6619 1.68272 14.6588 2.01775V6.46569L24.8274 0.379803C25.0903 0.219835 25.3914 0.133405 25.6991 0.129545C26.0068 0.125685 26.3099 0.204536 26.5768 0.357859C26.8663 0.526458 27.1061 0.768675 27.2717 1.05991C27.4373 1.35115 27.5229 1.68103 27.5198 2.01606V14.4512C27.5231 14.7863 27.4376 15.1163 27.2719 15.4077C27.1063 15.699 26.8664 15.9413 26.5768 16.1099C26.3099 16.2632 26.0068 16.3421 25.6991 16.3382C25.3914 16.3344 25.0903 16.2479 24.8274 16.088L14.6588 9.99928V14.4489C14.6625 14.7844 14.5771 15.1149 14.4114 15.4067C14.2458 15.6985 14.0057 15.9411 13.7157 16.1099C13.4489 16.2632 13.1458 16.3421 12.8381 16.3382C12.5303 16.3344 12.2293 16.2479 11.9664 16.088L1.33917 9.72976C1.08653 9.5715 0.878246 9.35164 0.733863 9.09083C0.589479 8.83001 0.513733 8.53678 0.513733 8.23867C0.513733 7.94056 0.589479 7.64733 0.733863 7.38651C0.878246 7.1257 1.08653 6.90584 1.33917 6.74758V6.73971Z" fill="#E1E1E6"/>
</svg>
